<svg height="511pt" viewBox="-72 1 511 511.999" width="511pt" xmlns="http://www.w3.org/2000/svg"><path d="m336.660156 55.597656h-304.613281c-13.28125 0-24.046875 10.765625-24.046875 24.046875v400.804688c0 13.285156 10.765625 24.050781 24.046875 24.050781h304.613281c13.285156 0 24.050782-10.769531 24.050782-24.050781v-400.804688c0-13.28125-10.769532-24.046875-24.050782-24.046875zm0 0" fill="#d19a6e"/><path d="m312.613281 480.453125h-256.515625c-8.855468 0-16.03125-7.179687-16.03125-16.03125v-368.746094c0-4.425781 3.585938-8.015625 8.015625-8.015625h272.546875c4.425782 0 8.015625 3.589844 8.015625 8.015625v368.742188c0 8.855469-7.179687 16.035156-16.03125 16.035156zm0 0" fill="#c38c66"/><path d="m320.628906 456.402344h-272.546875c-4.429687 0-8.015625-3.589844-8.015625-8.015625v-352.710938c0-4.425781 3.585938-8.015625 8.015625-8.015625h272.546875c4.425782 0 8.015625 3.589844 8.015625 8.015625v352.710938c0 4.425781-3.589843 8.015625-8.015625 8.015625zm0 0" fill="#fff"/><path d="m256.5 39.566406h-32.871094c-3.714844-18.296875-19.882812-32.066406-39.273437-32.066406s-35.558594 13.769531-39.273438 32.066406h-32.871093c-8.855469 0-16.035157 7.175782-16.035157 16.03125v16.03125c0 8.855469 7.179688 16.03125 16.035157 16.03125h144.289062c8.851562 0 16.03125-7.175781 16.03125-16.03125v-16.03125c0-8.855468-7.179688-16.03125-16.03125-16.03125zm0 0" fill="#c8c5c9"/><path d="m157.359375 212.265625-7.605469-2.535156c-3.273437-1.089844-5.480468-4.15625-5.480468-7.605469v-26.285156h-32.066407v26.285156c0 3.449219-2.207031 6.515625-5.480469 7.605469l-7.605468 2.535156c-6.546875 2.179687-10.960938 8.308594-10.960938 15.210937v12.492188c0 4.425781 3.589844 8.015625 8.015625 8.015625h64.128907c4.429687 0 8.015624-3.589844 8.015624-8.015625v-12.492188c.003907-6.902343-4.414062-13.03125-10.960937-15.210937zm0 0" fill="#ecbd83"/><path d="m272.53125 175.839844h-56.113281c-8.851563 0-16.03125-7.179688-16.03125-16.03125 0-8.855469 7.179687-16.035156 16.03125-16.035156h56.113281c8.855469 0 16.03125 7.179687 16.03125 16.035156.003906 8.851562-7.175781 16.03125-16.03125 16.03125zm0 0" fill="#a4ccff"/><path d="m112.210938 432.355469c-26.5625 0-48.097657-21.535157-48.097657-48.097657v-296.597656h-16.03125c-4.429687 0-8.015625 3.589844-8.015625 8.015625v352.710938c0 4.425781 3.585938 8.015625 8.015625 8.015625h272.546875c4.425782 0 8.015625-3.589844 8.015625-8.015625v-16.03125zm0 0" fill="#eceaec"/><path d="m256.5 87.660156h-144.289062c-8.855469 0-16.035157-7.175781-16.035157-16.03125v-8.015625h176.355469v8.015625c0 8.855469-7.175781 16.03125-16.03125 16.03125zm0 0" fill="#b6b1b7"/><path d="m128.242188 207.902344c5.847656 0 11.367187-1.324219 16.378906-3.585938-.199219-.703125-.347656-1.433594-.347656-2.191406v-26.285156h-32.066407v26.285156c0 .761719-.144531 1.488281-.347656 2.191406 5.015625 2.261719 10.535156 3.585938 16.382813 3.585938zm0 0" fill="#e2a975"/><path d="m128.242188 191.871094c-13.28125 0-24.046876-10.765625-24.046876-24.046875v-8.015625c0-13.285156 10.765626-24.050782 24.046876-24.050782s24.046874 10.769532 24.046874 24.050782v8.015625c0 13.28125-10.765624 24.046875-24.046874 24.046875zm0 0" fill="#f6d190"/><path d="m104.195312 159.804688v8.015624c0 13.285157 10.765626 24.050782 24.046876 24.050782v-56.113282c-13.28125 0-24.046876 10.765626-24.046876 24.046876zm0 0" fill="#ecbd83"/><path d="m336.660156 48.097656h-57.859375c-3.140625-9.308594-11.949219-16.03125-22.300781-16.03125h-27.160156c-6.523438-18.902344-24.550782-32.066406-44.984375-32.066406-20.4375 0-38.460938 13.164062-44.984375 32.0625h-27.160156c-10.355469 0-19.160157 6.726562-22.300782 16.035156h-57.863281c-17.394531 0-31.546875 14.148438-31.546875 31.546875v400.804688c0 17.398437 14.152344 31.550781 31.546875 31.550781h304.613281c17.394532 0 31.546875-14.152344 31.546875-31.550781v-400.804688c.003907-17.394531-14.148437-31.546875-31.546875-31.546875zm-224.449218-1.035156h32.871093c3.566407 0 6.640625-2.511719 7.347657-6.007812 3.066406-15.097657 16.492187-26.054688 31.925781-26.054688 15.429687 0 28.855469 10.957031 31.921875 26.058594.710937 3.496094 3.78125 6.007812 7.351562 6.007812h32.871094c4.703125 0 8.53125 3.828125 8.53125 8.53125v16.03125c0 4.707032-3.828125 8.53125-8.53125 8.53125h-144.289062c-4.707032 0-8.535157-3.828125-8.535157-8.53125v-16.023437c0-.003907 0-.003907 0-.007813s0-.003906 0-.007812c.003907-4.699219 3.832031-8.527344 8.535157-8.527344zm241 433.390625c0 9.125-7.425782 16.546875-16.550782 16.546875h-304.613281c-9.125 0-16.546875-7.421875-16.546875-16.546875v-400.808594c0-9.125 7.421875-16.546875 16.546875-16.546875h56.628906v8.53125c0 3.007813.574219 5.886719 1.609375 8.53125h-42.207031c-8.554687 0-15.515625 6.960938-15.515625 15.515625v352.710938c0 8.554687 6.960938 15.515625 15.515625 15.515625h8.019531c4.144532 0 7.5-3.355469 7.5-7.5 0-4.140625-3.355468-7.5-7.5-7.5h-8.019531c-.285156 0-.515625-.230469-.515625-.515625v-352.710938c0-.285156.230469-.515625.515625-.515625h208.421875c12.972656 0 23.53125-10.554687 23.53125-23.53125v-8.53125h56.628906c9.125 0 16.546875 7.421875 16.546875 16.546875v400.808594zm0 0"/><path d="m184.433594 55.082031c4.144531 0 7.5-3.359375 7.5-7.5 0-4.144531-3.355469-7.5-7.5-7.5h-.078125c-4.144531 0-7.460938 3.355469-7.460938 7.5 0 4.140625 3.398438 7.5 7.539063 7.5zm0 0"/><path d="m320.628906 80.160156h-16.03125c-4.144531 0-7.5 3.359375-7.5 7.5 0 4.144532 3.355469 7.5 7.5 7.5h16.03125c.285156 0 .515625.230469.515625.515625v352.710938c0 .285156-.230469.515625-.515625.515625h-232.464844c-4.140624 0-7.5 3.359375-7.5 7.5 0 4.144531 3.359376 7.5 7.5 7.5h232.464844c8.554688 0 15.515625-6.960938 15.515625-15.515625v-352.710938c0-8.554687-6.960937-15.515625-15.515625-15.515625zm0 0"/><path d="m96.175781 255.484375h64.128907c8.558593 0 15.519531-6.960937 15.519531-15.515625v-12.492188c0-10.148437-6.46875-19.117187-16.09375-22.328124l-7.601563-2.53125c-.210937-.070313-.355468-.269532-.355468-.492188v-13.320312c4.980468-5.578126 8.015624-12.929688 8.015624-20.980469v-8.015625c0-17.398438-14.152343-31.550782-31.546874-31.550782-17.398438 0-31.546876 14.152344-31.546876 31.550782v8.015625c0 8.050781 3.03125 15.402343 8.015626 20.980469v13.320312c0 .222656-.144532.421875-.355469.492188l-7.601563 2.535156c-9.625 3.207031-16.09375 12.179687-16.09375 22.324218v12.492188c0 8.554688 6.960938 15.515625 15.515625 15.515625zm15.519531-95.675781c0-9.125 7.421876-16.550782 16.546876-16.550782s16.546874 7.425782 16.546874 16.550782v8.015625c0 9.125-7.421874 16.546875-16.546874 16.546875s-16.546876-7.421875-16.546876-16.546875zm-16.035156 67.667968c0-3.679687 2.347656-6.933593 5.835938-8.09375l7.605468-2.535156c6.34375-2.117187 10.609376-8.03125 10.609376-14.722656v-3.933594c2.714843.761719 5.574218 1.179688 8.53125 1.179688 2.957031 0 5.816406-.417969 8.53125-1.179688v3.933594c0 6.6875 4.261718 12.605469 10.609374 14.722656l7.605469 2.535156c3.488281 1.160157 5.832031 4.414063 5.832031 8.09375v12.492188c0 .285156-.230468.515625-.515624.515625h-64.128907c-.285156 0-.515625-.230469-.515625-.515625zm0 0"/><path d="m216.417969 183.339844h56.113281c12.976562 0 23.53125-10.558594 23.53125-23.53125 0-12.976563-10.554688-23.535156-23.53125-23.535156h-56.113281c-12.976563 0-23.53125 10.558593-23.53125 23.535156 0 12.972656 10.558593 23.53125 23.53125 23.53125zm0-32.066406h56.113281c4.707031 0 8.53125 3.828124 8.53125 8.53125 0 4.707031-3.828125 8.535156-8.53125 8.535156h-56.113281c-4.703125 0-8.53125-3.828125-8.53125-8.535156 0-4.703126 3.828125-8.53125 8.53125-8.53125zm0 0"/><path d="m280.03125 207.902344c0-4.140625-3.359375-7.5-7.5-7.5h-64.128906c-4.140625 0-7.5 3.359375-7.5 7.5 0 4.144531 3.359375 7.5 7.5 7.5h64.128906c4.140625 0 7.5-3.355469 7.5-7.5zm0 0"/><path d="m208.402344 232.46875c-4.140625 0-7.5 3.355469-7.5 7.5 0 4.140625 3.359375 7.5 7.5 7.5h48.097656c4.140625 0 7.5-3.359375 7.5-7.5 0-4.144531-3.359375-7.5-7.5-7.5zm0 0"/><path d="m88.160156 303.582031h192.386719c4.144531 0 7.5-3.359375 7.5-7.5 0-4.144531-3.355469-7.5-7.5-7.5h-192.386719c-4.140625 0-7.5 3.355469-7.5 7.5 0 4.140625 3.359375 7.5 7.5 7.5zm0 0"/><path d="m88.160156 335.644531h192.386719c4.144531 0 7.5-3.359375 7.5-7.5s-3.355469-7.5-7.5-7.5h-192.386719c-4.140625 0-7.5 3.359375-7.5 7.5s3.359375 7.5 7.5 7.5zm0 0"/><path d="m88.160156 367.710938h192.386719c4.144531 0 7.5-3.359376 7.5-7.5 0-4.144532-3.355469-7.5-7.5-7.5h-192.386719c-4.140625 0-7.5 3.355468-7.5 7.5 0 4.140624 3.359375 7.5 7.5 7.5zm0 0"/><path d="m88.160156 399.773438h192.386719c4.144531 0 7.5-3.359376 7.5-7.5 0-4.140626-3.355469-7.5-7.5-7.5h-192.386719c-4.140625 0-7.5 3.359374-7.5 7.5 0 4.140624 3.359375 7.5 7.5 7.5zm0 0"/></svg>